<svg width="40" height="40" viewBox="0 0 40 40" fill="none" xmlns="http://www.w3.org/2000/svg">
<path d="M30.0119 0C31.3819 0 32.6722 0.25913 33.8829 0.777389C35.0936 1.29565 36.1529 2.00237 37.0609 2.89754C37.9689 3.79272 38.6858 4.83709 39.2115 6.03065C39.7372 7.22422 40 8.49631 40 9.84693V29.5408C40 30.8914 39.7372 32.1713 39.2115 33.3806C38.6858 34.5899 37.9689 35.6421 37.0609 36.5373C36.1529 37.4325 35.0936 38.1392 33.8829 38.6574C32.6722 39.1757 31.3819 39.4348 30.0119 39.4348H9.98805C8.61808 39.4348 7.32776 39.1757 6.11708 38.6574C4.90641 38.1392 3.84707 37.4325 2.93907 36.5373C2.03106 35.6421 1.31422 34.5899 0.78853 33.3806C0.262843 32.1713 0 30.8914 0 29.5408V9.84693C0 8.49631 0.262843 7.22422 0.78853 6.03065C1.31422 4.83709 2.03106 3.79272 2.93907 2.89754C3.84707 2.00237 4.90641 1.29565 6.11708 0.777389C7.32776 0.25913 8.61808 0 9.98805 0H30.0119ZM27.4791 8.62195H23.2736C22.4452 8.62195 21.6806 8.7633 20.9797 9.04598C20.2788 9.32867 19.6734 9.69773 19.1637 10.1532C18.6539 10.6086 18.2477 11.1347 17.945 11.7315C17.6424 12.3283 17.491 12.9251 17.491 13.5219V16.0189H13.7634V20.9188H17.491V30.8129H22.509V20.9188H26.2366V16.0189H22.509V14.794C22.509 14.3856 22.6603 14.0715 22.963 13.8517C23.2656 13.6318 23.5285 13.5219 23.7515 13.5219H27.4791V8.62195Z" fill="#FB6B90"/>
</svg>
