<svg width="40" height="40" viewBox="0 0 40 40" fill="none" xmlns="http://www.w3.org/2000/svg">
<path d="M30.0119 0C31.3819 0 32.6722 0.25913 33.8829 0.777389C35.0936 1.29565 36.1529 2.00237 37.0609 2.89754C37.9689 3.79272 38.6858 4.83709 39.2115 6.03065C39.7372 7.22422 40 8.49631 40 9.84693V29.5408C40 30.8914 39.7372 32.1713 39.2115 33.3806C38.6858 34.5899 37.9689 35.6421 37.0609 36.5373C36.1529 37.4325 35.0936 38.1392 33.8829 38.6574C32.6722 39.1757 31.3819 39.4348 30.0119 39.4348H9.98805C8.61808 39.4348 7.32776 39.1757 6.11708 38.6574C4.90641 38.1392 3.84707 37.4325 2.93907 36.5373C2.03106 35.6421 1.31422 34.5899 0.78853 33.3806C0.262843 32.1713 0 30.8914 0 29.5408V9.84693C0 8.49631 0.262843 7.22422 0.78853 6.03065C1.31422 4.83709 2.03106 3.79272 2.93907 2.89754C3.84707 2.00237 4.90641 1.29565 6.11708 0.777389C7.32776 0.25913 8.61808 0 9.98805 0H30.0119ZM13.7634 14.794H8.74552V30.8129H13.7634V14.794ZM11.2784 13.5219C11.9474 13.5219 12.5289 13.2863 13.0227 12.8151C13.5165 12.344 13.7634 11.7629 13.7634 11.0719C13.7634 10.3809 13.5165 9.79981 13.0227 9.32867C12.5289 8.85752 11.9474 8.62195 11.2784 8.62195C10.5775 8.62195 9.98009 8.85752 9.48626 9.32867C8.99243 9.79981 8.74552 10.3809 8.74552 11.0719C8.74552 11.7629 8.99243 12.344 9.48626 12.8151C9.98009 13.2863 10.5775 13.5219 11.2784 13.5219ZM31.2545 21.5313C31.2545 20.4006 30.9359 19.2934 30.2987 18.2098C29.6615 17.1261 28.8331 16.3016 27.8136 15.7362C26.8897 15.2337 25.8144 14.9667 24.5878 14.9353C23.3612 14.9039 22.2541 15.108 21.2664 15.5478V14.794H16.2485V30.8129H21.2664V21.0131L23.3214 20.0237C23.5763 19.898 23.9267 19.8352 24.3728 19.8352C24.8188 19.8352 25.1533 19.9137 25.3763 20.0708C25.5675 20.165 25.7587 20.3692 25.9498 20.6833C26.141 20.9974 26.2366 21.28 26.2366 21.5313V30.8129H31.2545V21.5313Z" fill="#FB6B90"/>
</svg>
