<svg width="40" height="40" viewBox="0 0 40 40" fill="none" xmlns="http://www.w3.org/2000/svg">
<path d="M30.0119 0C31.3819 0 32.6722 0.25913 33.8829 0.777389C35.0936 1.29565 36.1529 2.00237 37.0609 2.89754C37.9689 3.79272 38.6858 4.83709 39.2115 6.03065C39.7372 7.22422 40 8.49631 40 9.84693V29.5408C40 30.8914 39.7372 32.1713 39.2115 33.3806C38.6858 34.5899 37.9689 35.6421 37.0609 36.5373C36.1529 37.4325 35.0936 38.1392 33.8829 38.6574C32.6722 39.1757 31.3819 39.4348 30.0119 39.4348H9.98805C8.61808 39.4348 7.32776 39.1757 6.11708 38.6574C4.90641 38.1392 3.84707 37.4325 2.93907 36.5373C2.03106 35.6421 1.31422 34.5899 0.78853 33.3806C0.262843 32.1713 0 30.8914 0 29.5408V9.84693C0 8.49631 0.262843 7.22422 0.78853 6.03065C1.31422 4.83709 2.03106 3.79272 2.93907 2.89754C3.84707 2.00237 4.90641 1.29565 6.11708 0.777389C7.32776 0.25913 8.61808 0 9.98805 0H30.0119ZM29.534 14.8411C30.458 14.2129 31.2704 13.3962 31.9713 12.3911C31.5253 12.5796 31.0713 12.7366 30.6093 12.8623C30.1474 12.9879 29.6774 13.0821 29.1995 13.1449C30.2509 12.4853 30.9518 11.5902 31.3023 10.4594C30.3465 11.0562 29.327 11.4488 28.2437 11.6373C27.2879 10.6322 26.0932 10.1296 24.6595 10.1296C23.9904 10.1296 23.3612 10.2553 22.7718 10.5065C22.1824 10.7578 21.6726 11.1033 21.2425 11.5431C20.8124 11.9828 20.4699 12.4932 20.2151 13.0743C19.9602 13.6553 19.8327 14.2757 19.8327 14.9353C19.8327 15.1238 19.8407 15.3044 19.8566 15.4771C19.8726 15.6499 19.8965 15.8305 19.9283 16.0189C17.9211 15.9247 16.0573 15.43 14.3369 14.5348C12.6165 13.6396 11.1509 12.4696 9.94026 11.0248C9.49423 11.7472 9.27121 12.5482 9.27121 13.4276C9.27121 14.2443 9.47033 14.9981 9.86858 15.6891C10.2668 16.3801 10.7845 16.9455 11.4217 17.3852C11.0394 17.3852 10.6651 17.3303 10.2987 17.2203C9.9323 17.1104 9.57388 16.9769 9.22342 16.8199V16.867C9.22342 18.0291 9.59777 19.0421 10.3465 19.9059C11.0952 20.7696 12.0271 21.3272 13.1422 21.5784C12.6961 21.6727 12.266 21.7198 11.8519 21.7198H11.3979L10.9438 21.6256C11.2624 22.5993 11.828 23.3923 12.6404 24.0048C13.4528 24.6173 14.4006 24.9393 15.4839 24.9707C14.6555 25.5989 13.7236 26.1014 12.6882 26.4783C11.6527 26.8553 10.5775 27.0437 9.46237 27.0437C9.23935 27.0437 9.03226 27.0359 8.8411 27.0202C8.64994 27.0045 8.45878 26.9809 8.26762 26.9495C9.35086 27.6405 10.5217 28.1745 11.7802 28.5514C13.0386 28.9283 14.3528 29.1168 15.7228 29.1168C17.953 29.1168 19.9283 28.7006 21.6487 27.8682C23.3692 27.0359 24.8108 25.9679 25.9737 24.6644C27.1366 23.3609 28.0207 21.9004 28.626 20.2828C29.2314 18.6652 29.534 17.0554 29.534 15.4536V14.8411Z" fill="#FB6B90"/>
</svg>
