<svg width="20" height="20" viewBox="0 0 20 20" fill="none" xmlns="http://www.w3.org/2000/svg">
<path d="M5 1.66797L2.5 5.0013V16.668C2.5 17.11 2.67559 17.5339 2.98816 17.8465C3.30072 18.159 3.72464 18.3346 4.16667 18.3346H15.8333C16.2754 18.3346 16.6993 18.159 17.0118 17.8465C17.3244 17.5339 17.5 17.11 17.5 16.668V5.0013L15 1.66797H5Z" stroke="#FB6B90" stroke-width="2" stroke-linecap="round" stroke-linejoin="round"/>
<path d="M2.5 5H17.5" stroke="#FB6B90" stroke-width="2" stroke-linecap="round" stroke-linejoin="round"/>
<path d="M13.3332 8.33203C13.3332 9.21609 12.982 10.0639 12.3569 10.6891C11.7317 11.3142 10.8839 11.6654 9.99984 11.6654C9.11578 11.6654 8.26794 11.3142 7.64281 10.6891C7.01769 10.0639 6.6665 9.21609 6.6665 8.33203" stroke="#FB6B90" stroke-width="2" stroke-linecap="round" stroke-linejoin="round"/>
</svg>
