<svg width="16" height="15" viewBox="0 0 16 15" fill="none" xmlns="http://www.w3.org/2000/svg">
<path d="M10.104 7.73989L6.52323 11.3207C6.40387 11.4401 6.28451 11.4997 6.10547 11.4997C5.92643 11.4997 5.80707 11.4401 5.68771 11.3207C5.44899 11.082 5.44899 10.7239 5.68771 10.4852L8.85075 7.32213L5.68771 4.15909C5.44899 3.92037 5.44899 3.56229 5.68771 3.32357C5.92643 3.08485 6.28451 3.08485 6.52323 3.32357L10.104 6.90437C10.3427 7.14309 10.3427 7.50117 10.104 7.73989Z" fill="black"/>
<mask id="mask0_235_3693" style="mask-type:luminance" maskUnits="userSpaceOnUse" x="5" y="3" width="6" height="9">
<path d="M10.104 7.73989L6.52323 11.3207C6.40387 11.4401 6.28451 11.4997 6.10547 11.4997C5.92643 11.4997 5.80707 11.4401 5.68771 11.3207C5.44899 11.082 5.44899 10.7239 5.68771 10.4852L8.85075 7.32213L5.68771 4.15909C5.44899 3.92037 5.44899 3.56229 5.68771 3.32357C5.92643 3.08485 6.28451 3.08485 6.52323 3.32357L10.104 6.90437C10.3427 7.14309 10.3427 7.50117 10.104 7.73989Z" fill="white"/>
</mask>
<g mask="url(#mask0_235_3693)">
<rect x="0.734375" y="0.160156" width="14.3232" height="14.3232" fill="#FB6B90"/>
</g>
</svg>
