<svg width="13" height="15" viewBox="0 0 13 15" fill="none" xmlns="http://www.w3.org/2000/svg">
<path d="M11.7703 8.40032C12.0171 8.22461 12.1559 7.98623 12.1562 7.73758V7.26242C12.1522 7.01431 12.014 6.7769 11.7703 6.59969L2.75395 0.184939C2.58927 0.0665769 2.36509 0 2.13123 0C1.89736 0 1.67319 0.0665769 1.5085 0.184939L0.263047 1.07275C0.0980434 1.18799 0.0050602 1.34573 0.0050602 1.5104C0.0050602 1.67507 0.0980434 1.83281 0.263047 1.94806L8.06906 7.5L0.263047 13.0519C0.0970049 13.1693 0.0036068 13.3291 0.0036068 13.4959C0.0036068 13.6626 0.0970049 13.8224 0.263047 13.9398L1.5085 14.8151C1.67319 14.9334 1.89736 15 2.13123 15C2.36509 15 2.58927 14.9334 2.75395 14.8151L11.7703 8.40032Z" fill="white"/>
</svg>
