<svg width="133" height="133" viewBox="0 0 133 133" fill="none" xmlns="http://www.w3.org/2000/svg">
<circle cx="66.5" cy="66.5" r="66.5" fill="#FAE1E3"/>
<path d="M57.3076 75.1921C56.0384 73.923 56.0384 71.8654 57.3076 70.5959L61.9038 65.9998L57.3076 61.4036C56.0383 60.1345 56.0383 58.0766 57.3076 56.8074C58.5768 55.5382 60.6344 55.5382 61.9038 56.8074L66.5 61.4036L71.0961 56.8075C72.3653 55.5383 74.4232 55.5383 75.6923 56.8075C76.9617 58.0766 76.9617 60.1345 75.6923 61.4036L71.0961 65.9998L75.6923 70.5959C76.9614 71.8651 76.9614 73.923 75.6923 75.1921C74.4232 76.4615 72.3653 76.4615 71.0961 75.1921L66.5 70.5959L61.9038 75.1921C60.6347 76.4615 58.5769 76.4615 57.3076 75.1921Z" fill="#DC3545"/>
<path fill-rule="evenodd" clip-rule="evenodd" d="M64.4987 34.1894C65.6745 33.2702 67.3255 33.2702 68.5014 34.1894L73.8941 38.4045L80.6719 37.4505C82.15 37.2424 83.5797 38.0679 84.1387 39.4519L86.7013 45.7987L93.0479 48.3614C94.4321 48.9202 95.2576 50.35 95.0496 51.828L94.0954 58.6058L98.3107 63.9987C99.2298 65.1745 99.2298 66.8255 98.3107 68.0014L94.0954 73.3941L95.0496 80.1719C95.2576 81.65 94.4321 83.0797 93.0479 83.6387L86.7013 86.2013L84.1387 92.5479C83.5797 93.9321 82.15 94.7576 80.6719 94.5496L73.8941 93.5954L68.5014 97.8107C67.3255 98.7298 65.6745 98.7298 64.4987 97.8107L59.1058 93.5954L52.328 94.5496C50.85 94.7576 49.4202 93.9321 48.8614 92.5479L46.2987 86.2013L39.9519 83.6387C38.5679 83.0797 37.7424 81.65 37.9505 80.1719L38.9045 73.3941L34.6894 68.0014C33.7702 66.8255 33.7702 65.1745 34.6894 63.9987L38.9045 58.6058L37.9505 51.828C37.7424 50.35 38.5679 48.9202 39.9519 48.3614L46.2987 45.7987L48.8614 39.4519C49.4202 38.0679 50.85 37.2424 52.328 37.4505L59.1058 38.4045L64.4987 34.1894ZM66.5 40.875L62.0212 44.3758C61.326 44.919 60.4401 45.1564 59.5667 45.0334L53.9375 44.2411L51.8091 49.5123C51.4788 50.3302 50.8302 50.9788 50.0123 51.3091L44.7411 53.4375L45.5334 59.0667C45.6564 59.9401 45.419 60.826 44.8758 61.5212L41.375 66L44.8758 70.4788C45.419 71.174 45.6564 72.06 45.5334 72.9332L44.7411 78.5625L50.0123 80.691C50.8303 81.0212 51.4788 81.6699 51.8091 82.4876L53.9375 87.7587L59.5667 86.9667C60.4401 86.8435 61.326 87.0811 62.0212 87.6242L66.5 91.1251L70.9788 87.6242C71.674 87.0811 72.56 86.8435 73.4332 86.9667L79.0625 87.7587L81.191 82.4876C81.5212 81.6699 82.1699 81.0212 82.9876 80.691L88.2587 78.5625L87.4667 72.9332C87.3435 72.06 87.5811 71.174 88.1242 70.4788L91.6251 66L88.1242 61.5212C87.5811 60.826 87.3435 59.9401 87.4667 59.0667L88.2587 53.4375L82.9876 51.3091C82.1699 50.9788 81.5212 50.3303 81.191 49.5123L79.0625 44.2411L73.4332 45.0334C72.56 45.1564 71.674 44.919 70.9788 44.3758L66.5 40.875Z" fill="#DC3545"/>
</svg>
