<svg width="17" height="16" viewBox="0 0 17 16" fill="none" xmlns="http://www.w3.org/2000/svg">
<path d="M14.5319 3.45508L14.0419 10.49C13.9167 12.2874 13.8541 13.1861 13.3464 13.8323C13.0954 14.1517 12.7722 14.4213 12.3974 14.6239C11.6394 15.0337 10.6247 15.0337 8.59538 15.0337C6.56338 15.0337 5.54737 15.0337 4.78882 14.6232C4.41379 14.4202 4.09052 14.1501 3.8396 13.8301C3.33207 13.183 3.27085 12.283 3.1484 10.4831L2.67029 3.45508" stroke="#555F7E" stroke-width="1.5" stroke-linecap="round"/>
<path d="M15.7181 3.45508H1.48413" stroke="#555F7E" stroke-width="1.5" stroke-linecap="round"/>
<path d="M11.8082 3.45608L11.2683 2.46784C10.9097 1.81139 10.7304 1.48316 10.4211 1.27845C10.3525 1.23305 10.2799 1.19266 10.2039 1.15768C9.86142 1 9.45038 1 8.6283 1C7.78557 1 7.3642 1 7.01603 1.16429C6.93886 1.2007 6.86523 1.24273 6.79588 1.28993C6.48301 1.50293 6.30824 1.84317 5.9587 2.52365L5.47974 3.45608" stroke="#555F7E" stroke-width="1.5" stroke-linecap="round"/>
<path d="M6.62427 11.1758L6.62427 6.96537" stroke="#555F7E" stroke-width="1.5" stroke-linecap="round"/>
<path d="M10.5781 11.1743L10.5781 6.96387" stroke="#555F7E" stroke-width="1.5" stroke-linecap="round"/>
</svg>
