<svg width="12" height="14" viewBox="0 0 12 14" fill="none" xmlns="http://www.w3.org/2000/svg">
<path fill-rule="evenodd" clip-rule="evenodd" d="M4.07143 2.625V1.3125H7.92857V2.625H4.07143ZM2.78571 2.625V0.875C2.78571 0.642936 2.87602 0.420376 3.03677 0.256282C3.19751 0.0921872 3.41553 0 3.64286 0L8.35714 0C8.58447 0 8.80249 0.0921872 8.96323 0.256282C9.12398 0.420376 9.21429 0.642936 9.21429 0.875V2.625H11.3571C11.5276 2.625 11.6912 2.69414 11.8117 2.81721C11.9323 2.94028 12 3.1072 12 3.28125C12 3.4553 11.9323 3.62222 11.8117 3.74529C11.6912 3.86836 11.5276 3.9375 11.3571 3.9375H11.0443L10.4074 12.3839C10.3744 12.8235 10.18 13.2342 9.86311 13.5339C9.54622 13.8335 9.13022 14 8.69829 14H3.30171C2.86978 14 2.45378 13.8335 2.1369 13.5339C1.82001 13.2342 1.62561 12.8235 1.59257 12.3839L0.955714 3.9375H0.642857C0.472361 3.9375 0.308848 3.86836 0.188289 3.74529C0.0677294 3.62222 0 3.4553 0 3.28125C0 3.1072 0.0677294 2.94028 0.188289 2.81721C0.308848 2.69414 0.472361 2.625 0.642857 2.625H2.78571ZM2.24571 3.9375H9.75429L9.12514 12.2832C9.11694 12.3931 9.06842 12.4958 8.98929 12.5707C8.91015 12.6457 8.80623 12.6874 8.69829 12.6875H3.30171C3.19377 12.6874 3.08985 12.6457 3.01071 12.5707C2.93158 12.4958 2.88306 12.3931 2.87486 12.2832L2.24571 3.9375Z" fill="#FB6B90"/>
</svg>
