<svg width="17" height="16" viewBox="0 0 17 16" fill="none" xmlns="http://www.w3.org/2000/svg">
<path d="M10.0611 2.32501C10.5915 1.75846 10.8566 1.47519 11.1384 1.30996C11.8183 0.911262 12.6555 0.898864 13.3468 1.27725C13.6333 1.43407 13.9066 1.70937 14.4532 2.25997C14.9999 2.81057 15.2732 3.08587 15.4289 3.37442C15.8046 4.07066 15.7923 4.9139 15.3964 5.59871C15.2324 5.88253 14.9512 6.14961 14.3887 6.68379L7.69608 13.0395C6.63013 14.0518 6.09715 14.5579 5.43105 14.8144C4.76494 15.0709 4.03266 15.0521 2.5681 15.0143L2.36883 15.0092C1.92297 14.9977 1.70004 14.9919 1.57045 14.8469C1.44086 14.7019 1.45856 14.478 1.49394 14.0302L1.51315 13.787C1.61274 12.5267 1.66254 11.8965 1.91215 11.33C2.16177 10.7635 2.59234 10.3036 3.45349 9.38365L10.0611 2.32501Z" stroke="#555F7E" stroke-width="1.5" stroke-linejoin="round"/>
<path d="M9.29675 2.40625L14.2786 7.31829" stroke="#555F7E" stroke-width="1.5" stroke-linejoin="round"/>
<path d="M10.0087 15.0361L15.7023 15.0361" stroke="#555F7E" stroke-width="1.5" stroke-linecap="round" stroke-linejoin="round"/>
</svg>
