<svg width="17" height="19" viewBox="0 0 17 19" fill="none" xmlns="http://www.w3.org/2000/svg">
<path d="M10.5846 3.07317L14.5487 7.60858M1.16992 18.3802H5.13401L15.5397 6.47473C15.8 6.17693 16.0065 5.82339 16.1474 5.4343C16.2882 5.0452 16.3607 4.62817 16.3607 4.20702C16.3607 3.78587 16.2882 3.36884 16.1474 2.97975C16.0065 2.59065 15.8 2.23711 15.5397 1.93932C15.2794 1.64152 14.9704 1.40529 14.6304 1.24412C14.2903 1.08295 13.9258 1 13.5577 1C13.1896 1 12.8251 1.08295 12.485 1.24412C12.1449 1.40529 11.8359 1.64152 11.5756 1.93932L1.16992 13.8448V18.3802Z" stroke="black" stroke-linecap="round" stroke-linejoin="round"/>
</svg>
