<svg width="18" height="16" viewBox="0 0 18 16" fill="none" xmlns="http://www.w3.org/2000/svg">
<path d="M12.8049 0.501709C11.1917 0.501709 9.77915 1.19546 8.89868 2.36812C8.01821 1.19546 6.60571 0.501709 4.99243 0.501709C3.70823 0.503156 2.47705 1.01394 1.56898 1.92201C0.660916 2.83008 0.150129 4.06126 0.148682 5.34546C0.148682 10.8142 8.25728 15.2408 8.60259 15.4236C8.6936 15.4725 8.79533 15.4982 8.89868 15.4982C9.00203 15.4982 9.10376 15.4725 9.19477 15.4236C9.54009 15.2408 17.6487 10.8142 17.6487 5.34546C17.6472 4.06126 17.1364 2.83008 16.2284 1.92201C15.3203 1.01394 14.0891 0.503156 12.8049 0.501709ZM8.89868 14.158C7.47212 13.3267 1.39868 9.53999 1.39868 5.34546C1.39992 4.39272 1.77895 3.47935 2.45264 2.80566C3.12633 2.13197 4.03969 1.75295 4.99243 1.75171C6.51196 1.75171 7.78774 2.56108 8.32056 3.86108C8.36764 3.97572 8.44775 4.07376 8.55069 4.14276C8.65363 4.21176 8.77476 4.24861 8.89868 4.24861C9.02261 4.24861 9.14374 4.21176 9.24668 4.14276C9.34962 4.07376 9.42972 3.97572 9.47681 3.86108C10.0096 2.55874 11.2854 1.75171 12.8049 1.75171C13.7577 1.75295 14.671 2.13197 15.3447 2.80566C16.0184 3.47935 16.3974 4.39272 16.3987 5.34546C16.3987 9.53374 10.3237 13.3259 8.89868 14.158Z" fill="black"/>
</svg>
