<svg width="25" height="24" viewBox="0 0 25 24" fill="none" xmlns="http://www.w3.org/2000/svg">
<path d="M12.2056 2.91016C8.90959 2.91016 6.23094 5.60016 6.23094 8.91016V11.8002C6.23094 12.4102 5.97203 13.3402 5.66334 13.8602L4.5182 15.7702C3.81119 16.9502 4.29912 18.2602 5.59364 18.7002C9.88545 20.1402 14.5158 20.1402 18.8076 18.7002C20.0125 18.3002 20.5403 16.8702 19.8831 15.7702L18.7379 13.8602C18.4392 13.3402 18.1803 12.4102 18.1803 11.8002V8.91016C18.1803 5.61016 15.4917 2.91016 12.2056 2.91016Z" stroke="#48525B" stroke-width="1.5" stroke-miterlimit="10" stroke-linecap="round"/>
<path d="M14.0479 3.20141C13.7392 3.11141 13.4206 3.04141 13.092 3.00141C12.136 2.88141 11.2199 2.95141 10.3635 3.20141C10.6523 2.46141 11.3693 1.94141 12.2057 1.94141C13.0422 1.94141 13.7591 2.46141 14.0479 3.20141Z" stroke="#48525B" stroke-width="1.5" stroke-miterlimit="10" stroke-linecap="round" stroke-linejoin="round"/>
<path d="M15.1929 19.0586C15.1929 20.7086 13.8486 22.0586 12.2056 22.0586C11.3891 22.0586 10.6323 21.7186 10.0945 21.1786C9.55683 20.6386 9.21826 19.8786 9.21826 19.0586" stroke="#48525B" stroke-width="1.5" stroke-miterlimit="10"/>
<!-- <ellipse cx="18.1604" cy="4" rx="3.98312" ry="4" fill="#FB6B90"/> -->
</svg>
