<svg width="88" height="88" viewBox="0 0 88 88" fill="none" xmlns="http://www.w3.org/2000/svg">
<path d="M44 0.25C35.3471 0.25 26.8885 2.81589 19.6938 7.6232C12.4992 12.4305 6.89162 19.2633 3.58029 27.2576C0.268956 35.2519 -0.59744 44.0485 1.09066 52.5352C2.77877 61.0219 6.94555 68.8174 13.0641 74.9359C19.1826 81.0545 26.9782 85.2213 35.4648 86.9094C43.9515 88.5975 52.7482 87.7311 60.7424 84.4197C68.7367 81.1084 75.5695 75.5008 80.3768 68.3062C85.1841 61.1115 87.75 52.6529 87.75 44C87.75 32.3968 83.1407 21.2688 74.9359 13.0641C66.7312 4.85936 55.6032 0.25 44 0.25ZM37.75 61.4688L22.125 45.8438L27.0938 40.875L37.75 51.5312L60.9063 28.375L65.8938 33.3313L37.75 61.4688Z" fill="#FB6B90"/>
</svg>
