<svg width="68" height="74" viewBox="0 0 68 74" fill="none" xmlns="http://www.w3.org/2000/svg">
<path d="M59.0768 14.9023L56.97 48.9859C56.4317 57.6941 56.1625 62.0481 53.9799 65.1785C52.9008 66.7262 51.5114 68.0324 49.9001 69.014C46.6413 70.9994 42.2791 70.9994 33.5548 70.9994C24.8189 70.9994 20.451 70.9994 17.1899 69.0103C15.5776 68.0269 14.1878 66.7184 13.109 65.1682C10.9271 62.0327 10.6639 57.6725 10.1375 48.9521L8.08203 14.9023" stroke="#FB6B90" stroke-width="6" stroke-linecap="round"/>
<path d="M64.1937 14.9023H3" stroke="#FB6B90" stroke-width="6" stroke-linecap="round"/>
<path d="M47.3747 14.8994L45.0539 10.1115C43.5122 6.93107 42.7414 5.34085 41.4117 4.34907C41.1167 4.12908 40.8044 3.9334 40.4778 3.76394C39.0054 3 37.2383 3 33.704 3C30.081 3 28.2695 3 26.7727 3.79597C26.4409 3.97238 26.1244 4.17598 25.8263 4.4047C24.4812 5.43665 23.7298 7.08507 22.2271 10.3819L20.168 14.8994" stroke="#FB6B90" stroke-width="6" stroke-linecap="round"/>
<path d="M25.082 52.291L25.082 31.8921" stroke="#FB6B90" stroke-width="6" stroke-linecap="round"/>
<path d="M42.0801 52.3013L42.0801 31.9023" stroke="#FB6B90" stroke-width="6" stroke-linecap="round"/>
</svg>
