<?xml version="1.0" encoding="utf-8"?>
<!-- Generator: Adobe Illustrator 25.3.0, SVG Export Plug-In . SVG Version: 6.00 Build 0)  -->
<svg version="1.1" id="Layer_1" xmlns="http://www.w3.org/2000/svg" xmlns:xlink="http://www.w3.org/1999/xlink" x="0px" y="0px"
	 viewBox="0 0 256 256" style="enable-background:new 0 0 256 256;" xml:space="preserve">
<style type="text/css">
	.st0{fill:#F16B8F;}
</style>
<g>
	<g>
		<path class="st0" d="M228.4,201.1l-6.8-7.1L118.1,86L78.6,44.9l-18-18.8l2.7,5.5l22.4,46.3l20.2,41.7
			c28.3,58.9,77.5,96.6,142.1,108.8l8.1,1.5L228.4,201.1z M113.4,123c-1-1.9-1.9-3.8-2.8-5.7l-20.3-42L79.8,53.7l131.5,137.2
			l7.5,7.8l21.9,22.8C183.9,208.5,140.1,174.6,113.4,123z"/>
		<path class="st0" d="M240.7,221.5c-56.8-13-105.7-48.3-131.1-106.3c17.6,41.8,75.4,81,109.2,83.5L240.7,221.5z"/>
	</g>
	<g>
		<path class="st0" d="M56.9,157.3l-10.4,13.1l-31,39.1l-4.5,5.7L0,229.1l6-0.6c41.5-4.3,69.3-29,78.2-69.6l0.2-0.8l5-22.5l6-26.8
			L56.9,157.3z M81.7,146.8l-2.1,9.3l-0.4,1.6c-1.6,7.1-3.7,13.6-6.4,19.6c-11.3,24.8-32.4,40.5-61.1,45.2l6.6-8.3l5.1-6.4
			l37.1-46.8L70.8,148l14.8-18.7l-2.3,10.3L81.7,146.8z"/>
		<path class="st0" d="M75.8,169.9c-8.6,32.1-35.4,48-64.1,52.7l6.6-8.3C35.8,214.8,68.8,191.4,75.8,169.9z"/>
	</g>
</g>
</svg>
