<?xml version="1.0" encoding="utf-8"?>
<!-- Generator: Adobe Illustrator 25.3.0, SVG Export Plug-In . SVG Version: 6.00 Build 0)  -->
<svg version="1.1" id="Layer_1" xmlns="http://www.w3.org/2000/svg" xmlns:xlink="http://www.w3.org/1999/xlink" x="0px" y="0px"
	 viewBox="0 0 157 35" style="enable-background:new 0 0 157 35;" xml:space="preserve">
<style type="text/css">
	.st0{fill:#F16B8F;}
	.st1{fill:#3F3F3F;}
</style>
<g>
	<g>
		<g>
			<path class="st0" d="M49.2,29.8l-1.2-1.2L30.5,10.2l-6.7-7L20.7,0l0.5,0.9L25,8.8l3.4,7.1c4.8,10,13.2,16.4,24.2,18.5l1.4,0.3
				L49.2,29.8z M29.7,16.5c-0.2-0.3-0.3-0.6-0.5-1l-3.5-7.1L24,4.7L46.3,28l1.3,1.3l3.7,3.9C41.7,31,34.2,25.3,29.7,16.5z"/>
			<path class="st0" d="M51.3,33.2C41.7,31,33.3,25,29,15.1c3,7.1,12.8,13.8,18.6,14.2L51.3,33.2z"/>
		</g>
		<g>
			<path class="st0" d="M20.1,22.3l-1.8,2.2L13,31.2l-0.8,1l-1.9,2.4l1-0.1c7.1-0.7,11.8-4.9,13.3-11.8l0-0.1l0.9-3.8l1-4.6
				L20.1,22.3z M24.3,20.5l-0.4,1.6l-0.1,0.3c-0.3,1.2-0.6,2.3-1.1,3.3c-1.9,4.2-5.5,6.9-10.4,7.7l1.1-1.4l0.9-1.1l6.3-8l1.8-2.2
				l2.5-3.2l-0.4,1.8L24.3,20.5z"/>
			<path class="st0" d="M23.3,24.4c-1.5,5.5-6,8.2-10.9,9l1.1-1.4C16.5,32.1,22.1,28.1,23.3,24.4z"/>
		</g>
	</g>
	<g>
		<g>
			<path class="st0" d="M68.3,23.4h4.9c-0.4-0.3-0.8-0.7-1-1.2l0,0L65.5,7.4c-0.3,1-1,2.4-1,2.6L59,22.2c-0.3,0.5-0.7,0.9-1,1.1h2.5
				c-0.1-0.1-0.1-0.1-0.2-0.2c-0.2-0.4-0.3-0.8-0.1-1.3l1.3-3.1h5.9l1.2,3.1c0.2,0.5,0.2,1-0.1,1.3C68.5,23.2,68.4,23.3,68.3,23.4z
				 M61.7,18.4l2.8-6.8l2.7,6.8H61.7z"/>
		</g>
		<g>
			<path class="st0" d="M81.2,24.3C80.3,24,80,23.5,80,22.6V9c0-0.6,0.3-1.1,0.7-1.4h-4.4C76.8,7.9,77,8.4,77,9v13
				c0,0.6-0.3,1.2-0.8,1.5c1.7,0.2,3.1,0.8,4.4,1.5c0.5,0.2,1.1,0.5,1.6,0.8c4.7,2.4,11,5.6,15.1,0.9C94.1,28,88.7,26.8,81.2,24.3z"
				/>
		</g>
		<g>
			<path class="st0" d="M87.9,23.4h4.4c-0.4-0.3-0.7-0.8-0.7-1.4V9.3c0-0.9,0.2-1.5,0.7-1.9c-1.5,0.2-3.2,0.2-4.5,0.3
				c-0.6,0-1.1,0-1.5,0.1c-1.9,0.1-3,0.9-3,2.1c0,0.6,0.2,1.1,0.7,1.5c0.1,0.1,0.3,0.2,0.5,0.2c-0.1-0.1-0.2-0.1-0.3-0.2
				c-0.3-0.4-0.5-0.9-0.5-1.4c0.1-1.6,1.9-1.7,2.5-1.8L88.7,8v14C88.7,22.5,88.4,23.1,87.9,23.4z"/>
		</g>
		<g>
			<path class="st0" d="M107.4,7.6c0.1,0.1,0.2,0.2,0.2,0.3c0.2,0.4,0.2,0.9,0,1.2l-3.7,6.5l-3.6-6.5c-0.2-0.4-0.2-0.9,0-1.3
				c0.1-0.1,0.1-0.2,0.2-0.2h-4.9c0.5,0.3,1,0.7,1.2,1.1l4.5,7.4V22c0,0.6-0.3,1.1-0.7,1.4h4.4c-0.4-0.3-0.7-0.8-0.7-1.4v-5.8
				l4.6-7.4c0.3-0.4,0.7-0.9,1.3-1.2H107.4z"/>
		</g>
		<path class="st0" d="M120,21.9c0.2,0.5,0.2,1-0.1,1.3c0,0.1-0.1,0.1-0.2,0.2h4.9c-0.1-0.1-0.2-0.1-0.2-0.2c-0.3-0.2-0.6-0.6-0.8-1
			l0,0l-6.7-14.8c-0.3,1-1,2.4-1,2.6l-5.4,12.2c-0.3,0.5-0.7,0.9-1,1.1h2.5c-0.1-0.1-0.1-0.1-0.2-0.2c-0.2-0.4-0.3-0.8-0.1-1.3
			l4.3-10.3L120,21.9z"/>
		<g>
			<path class="st0" d="M139.4,20.1l-3.4-8.4c-1.2-3-2.6-4.7-4.4-5.3c-1-0.4-2-0.3-3.2,0c2,0.1,3.2,2,3.9,3.7l0.1,0.1l-0.1,0.1
				l-5.2,11.9c-0.2,0.4-0.5,0.7-0.8,0.9c-0.1,0.1-0.2,0.1-0.2,0.2h2.5c-0.1-0.1-0.1-0.1-0.2-0.2c-0.2-0.4-0.3-0.8-0.1-1.3l1.3-3.1
				h5.9l0.8,2.2c1.4,3.6,3.5,6.1,6,7.1c1.4,0.5,2.8,0.6,4.2,0.2C143.1,28.1,140.9,23.9,139.4,20.1z M129.8,18.3l3-7.1l0.3,0.7
				c0.1,0.2,0.2,0.5,0.3,0.7c0.1,0.4,0.2,0.7,0.4,1l1.8,4.7H129.8z"/>
		</g>
	</g>
	<g>
		<path class="st1" d="M73.9,31.2h0.7c0.3,0,0.5,0,0.7,0.1c0.2,0.1,0.3,0.2,0.4,0.3c0.1,0.1,0.1,0.3,0.1,0.5c0,0.2,0,0.3-0.1,0.5
			c-0.1,0.1-0.2,0.2-0.4,0.3c0.2,0.1,0.3,0.1,0.4,0.2c0.1,0.1,0.2,0.2,0.2,0.3c0.1,0.1,0.1,0.3,0.1,0.4c0,0.3-0.1,0.6-0.3,0.8
			c-0.2,0.2-0.5,0.3-0.9,0.3h-1V31.2z M74.2,31.5v1.2h0.2c0.3,0,0.5,0,0.6-0.1c0.1,0,0.2-0.1,0.3-0.2c0.1-0.1,0.1-0.2,0.1-0.3
			c0-0.2-0.1-0.3-0.2-0.4c-0.1-0.1-0.3-0.1-0.6-0.1H74.2z M74.2,33.1v1.4h0.5c0.3,0,0.5,0,0.6-0.1c0.1-0.1,0.2-0.1,0.3-0.3
			c0.1-0.1,0.1-0.2,0.1-0.4c0-0.2-0.1-0.3-0.2-0.4c-0.1-0.1-0.3-0.2-0.4-0.3c-0.1,0-0.3,0-0.7,0H74.2z"/>
		<path class="st1" d="M84.7,31.2h2.1v0.4h-1.8v1.2h1.8v0.4h-1.8v1.5h1.8v0.4h-2.1V31.2z"/>
		<path class="st1" d="M96.8,31.2l1.7,3.7h-0.4l-0.6-1.2H96l-0.6,1.2H95L96.8,31.2L96.8,31.2z M96.8,32l-0.6,1.4h1.3L96.8,32z"/>
		<path class="st1" d="M107,31.2h0.4v2.3c0,0.3,0,0.4,0,0.5c0,0.1,0.1,0.3,0.1,0.4c0.1,0.1,0.2,0.2,0.3,0.2c0.1,0.1,0.3,0.1,0.4,0.1
			c0.1,0,0.2,0,0.4-0.1c0.1-0.1,0.2-0.1,0.3-0.2c0.1-0.1,0.1-0.2,0.2-0.3c0-0.1,0-0.3,0-0.6v-2.3h0.4v2.3c0,0.3,0,0.6-0.1,0.8
			c-0.1,0.2-0.2,0.4-0.4,0.5c-0.2,0.2-0.4,0.2-0.7,0.2c-0.3,0-0.6-0.1-0.8-0.2c-0.2-0.1-0.4-0.3-0.4-0.6c0-0.1-0.1-0.4-0.1-0.8V31.2
			z"/>
		<path class="st1" d="M117.8,31.5v-0.4h2.1v0.4H119v3.4h-0.4v-3.4H117.8z"/>
		<path class="st1" d="M127.9,31.2h0.4l1,1.5l0.9-1.5h0.4l-1.2,2v1.8h-0.4v-1.8L127.9,31.2z"/>
	</g>
</g>
</svg>
