<svg width="41" height="40" viewBox="0 0 41 40" fill="none" xmlns="http://www.w3.org/2000/svg">
<path d="M30.1189 0C31.4898 0 32.781 0.262843 33.9926 0.78853C35.2041 1.31422 36.2641 2.03106 37.1728 2.93907C38.0814 3.84707 38.7988 4.90641 39.3248 6.11708C39.8509 7.32776 40.1139 8.61808 40.1139 9.98805V29.9642C40.1139 31.3341 39.8509 32.6324 39.3248 33.859C38.7988 35.0856 38.0814 36.1529 37.1728 37.0609C36.2641 37.9689 35.2041 38.6858 33.9926 39.2115C32.781 39.7372 31.4898 40 30.1189 40H10.0811C8.71018 40 7.41896 39.7372 6.20745 39.2115C4.99593 38.6858 3.93586 37.9689 3.02722 37.0609C2.11859 36.1529 1.40124 35.0856 0.875191 33.859C0.349139 32.6324 0.086113 31.3341 0.086113 29.9642V9.98805C0.086113 8.61808 0.349139 7.32776 0.875191 6.11708C1.40124 4.90641 2.11859 3.84707 3.02722 2.93907C3.93586 2.03106 4.99593 1.31422 6.20745 0.78853C7.41896 0.262843 8.71018 0 10.0811 0H30.1189ZM27.5843 8.74552H23.3759C22.5469 8.74552 21.7818 8.88889 21.0804 9.17563C20.379 9.46237 19.7732 9.83672 19.2631 10.2987C18.753 10.7607 18.3465 11.2943 18.0436 11.8996C17.7407 12.505 17.5893 13.1103 17.5893 13.7157V16.2485H13.8591V21.2186H17.5893V31.2545H22.6107V21.2186H26.3409V16.2485H22.6107V15.006C22.6107 14.5918 22.7621 14.2732 23.065 14.0502C23.3679 13.8272 23.6309 13.7157 23.8541 13.7157H27.5843V8.74552Z" fill="white"/>
</svg>
