<svg width="41" height="40" viewBox="0 0 41 40" fill="none" xmlns="http://www.w3.org/2000/svg">
<path d="M30.2133 0C31.5843 0 32.8755 0.262843 34.087 0.78853C35.2985 1.31422 36.3586 2.03106 37.2672 2.93907C38.1758 3.84707 38.8932 4.90641 39.4192 6.11708C39.9453 7.32776 40.2083 8.61808 40.2083 9.98805V29.9642C40.2083 31.3341 39.9453 32.6324 39.4192 33.859C38.8932 35.0856 38.1758 36.1529 37.2672 37.0609C36.3586 37.9689 35.2985 38.6858 34.087 39.2115C32.8755 39.7372 31.5843 40 30.2133 40H10.1755C8.80461 40 7.51339 39.7372 6.30187 39.2115C5.09036 38.6858 4.03029 37.9689 3.12165 37.0609C2.21302 36.1529 1.49567 35.0856 0.96962 33.859C0.443568 32.6324 0.180542 31.3341 0.180542 29.9642V9.98805C0.180542 8.61808 0.443568 7.32776 0.96962 6.11708C1.49567 4.90641 2.21302 3.84707 3.12165 2.93907C4.03029 2.03106 5.09036 1.31422 6.30187 0.78853C7.51339 0.262843 8.80461 0 10.1755 0H30.2133ZM13.9535 15.006H8.93213V31.2545H13.9535V15.006ZM11.4667 13.7157C12.1363 13.7157 12.7181 13.4767 13.2123 12.9988C13.7065 12.5209 13.9535 11.9315 13.9535 11.2306C13.9535 10.5297 13.7065 9.94026 13.2123 9.46237C12.7181 8.98447 12.1363 8.74552 11.4667 8.74552C10.7653 8.74552 10.1676 8.98447 9.67339 9.46237C9.17922 9.94026 8.93213 10.5297 8.93213 11.2306C8.93213 11.9315 9.17922 12.5209 9.67339 12.9988C10.1676 13.4767 10.7653 13.7157 11.4667 13.7157ZM31.4567 21.8399C31.4567 20.693 31.1379 19.5699 30.5003 18.4707C29.8626 17.3716 29.0337 16.5352 28.0135 15.9618C27.0889 15.452 26.0129 15.1812 24.7854 15.1493C23.558 15.1175 22.4501 15.3246 21.4617 15.7706V15.006H16.4403V31.2545H21.4617V21.3142L23.5181 20.3106C23.7732 20.1832 24.1239 20.1195 24.5702 20.1195C25.0166 20.1195 25.3513 20.1991 25.5745 20.3584C25.7658 20.454 25.9571 20.6611 26.1484 20.9797C26.3397 21.2983 26.4353 21.585 26.4353 21.8399V31.2545H31.4567V21.8399Z" fill="white"/>
</svg>
