<svg width="21" height="20" viewBox="0 0 21 20" fill="none" xmlns="http://www.w3.org/2000/svg">
<path d="M10.7575 11.25C10.139 11.25 9.53444 11.0667 9.02018 10.7233C8.50592 10.38 8.1051 9.89191 7.86841 9.32089C7.63173 8.74987 7.5698 8.12154 7.69046 7.51534C7.81112 6.90915 8.10896 6.35233 8.5463 5.91529C8.98364 5.47825 9.54085 5.18063 10.1475 5.06005C10.7541 4.93947 11.3828 5.00135 11.9543 5.23788C12.5257 5.4744 13.0141 5.87494 13.3577 6.38884C13.7013 6.90275 13.8847 7.50693 13.8847 8.125C13.8837 8.9535 13.5539 9.74778 12.9677 10.3336C12.3814 10.9195 11.5866 11.249 10.7575 11.25ZM10.7575 6.25C10.3864 6.25 10.0237 6.35997 9.71512 6.566C9.40657 6.77202 9.16608 7.06486 9.02407 7.40747C8.88205 7.75008 8.8449 8.12708 8.91729 8.4908C8.98969 8.85451 9.16839 9.1886 9.4308 9.45083C9.6932 9.71305 10.0275 9.89163 10.3915 9.96397C10.7555 10.0363 11.1327 9.99919 11.4756 9.85728C11.8184 9.71536 12.1115 9.47504 12.3176 9.1667C12.5238 8.85835 12.6338 8.49584 12.6338 8.125C12.6333 7.62787 12.4355 7.15125 12.0837 6.79972C11.732 6.4482 11.255 6.2505 10.7575 6.25Z" fill="white"/>
<path d="M10.7575 18.75L5.48137 12.5319C5.40805 12.4385 5.3355 12.3445 5.26372 12.25C4.36245 11.0636 3.87557 9.61452 3.87775 8.125C3.87775 6.30164 4.60259 4.55295 5.89279 3.26364C7.183 1.97433 8.9329 1.25 10.7575 1.25C12.5822 1.25 14.3321 1.97433 15.6223 3.26364C16.9125 4.55295 17.6373 6.30164 17.6373 8.125C17.6395 9.61384 17.1528 11.0623 16.252 12.2481L16.2513 12.25C16.2513 12.25 16.0637 12.4963 16.0356 12.5294L10.7575 18.75ZM6.26191 11.4969C6.26316 11.4969 6.40826 11.6894 6.44141 11.7306L10.7575 16.8175L15.0793 11.7237C15.1068 11.6894 15.2531 11.4956 15.2538 11.495C15.99 10.5257 16.3879 9.34189 16.3864 8.125C16.3864 6.63316 15.7934 5.20242 14.7378 4.14752C13.6821 3.09263 12.2504 2.5 10.7575 2.5C9.26465 2.5 7.83291 3.09263 6.77729 4.14752C5.72167 5.20242 5.12862 6.63316 5.12862 8.125C5.12731 9.34265 5.52501 10.5271 6.26191 11.4969Z" fill="white"/>
</svg>
