<svg width="19" height="19" viewBox="0 0 19 19" fill="none" xmlns="http://www.w3.org/2000/svg">
<path d="M0.584493 0.666504H7.73946L8.97948 6.2415L7.42841 7.7915C8.33999 9.21019 9.54681 10.4159 10.9667 11.3265L12.5178 9.77734L18.0966 11.0165V18.1665H17.2627C14.0525 18.1715 10.9097 17.2464 8.21479 15.5032C6.22778 14.2181 4.53562 12.5271 3.24968 10.5415C1.50525 7.84847 0.579497 4.70783 0.584493 1.49984V0.666504ZM2.27483 2.33317C2.41508 4.93315 3.23419 7.45111 4.65065 9.6365C5.80843 11.4239 7.33174 12.9462 9.12041 14.1032C11.3073 15.5187 13.827 16.3372 16.4288 16.4773V12.3532L13.049 11.6032L11.236 13.4157L10.6832 13.1015C8.58398 11.9093 6.84605 10.1726 5.65301 8.07484L5.33862 7.52234L7.15238 5.71067L6.40186 2.33317H2.27483Z" fill="white"/>
</svg>
