<svg width="41" height="40" viewBox="0 0 41 40" fill="none" xmlns="http://www.w3.org/2000/svg">
<path d="M30.1661 0C31.537 0 32.8283 0.262843 34.0398 0.78853C35.2513 1.31422 36.3114 2.03106 37.22 2.93907C38.1286 3.84707 38.846 4.90641 39.372 6.11708C39.8981 7.32776 40.1611 8.61808 40.1611 9.98805V29.9642C40.1611 31.3341 39.8981 32.6324 39.372 33.859C38.846 35.0856 38.1286 36.1529 37.22 37.0609C36.3114 37.9689 35.2513 38.6858 34.0398 39.2115C32.8283 39.7372 31.537 40 30.1661 40H10.1283C8.7574 40 7.46618 39.7372 6.25466 39.2115C5.04315 38.6858 3.98308 37.9689 3.07444 37.0609C2.1658 36.1529 1.44846 35.0856 0.922409 33.859C0.396357 32.6324 0.133331 31.3341 0.133331 29.9642V9.98805C0.133331 8.61808 0.396357 7.32776 0.922409 6.11708C1.44846 4.90641 2.1658 3.84707 3.07444 2.93907C3.98308 2.03106 5.04315 1.31422 6.25466 0.78853C7.46618 0.262843 8.7574 0 10.1283 0H30.1661ZM29.6879 15.0538C30.6125 14.4166 31.4255 13.5882 32.1269 12.5687C31.6805 12.7599 31.2262 12.9192 30.7639 13.0466C30.3016 13.174 29.8314 13.2696 29.3531 13.3333C30.4052 12.6643 31.1066 11.7563 31.4573 10.6093C30.5009 11.2147 29.4807 11.6129 28.3967 11.8041C27.4402 10.7845 26.2446 10.2748 24.81 10.2748C24.1404 10.2748 23.5108 10.4022 22.9209 10.6571C22.3311 10.912 21.821 11.2624 21.3906 11.7085C20.9602 12.1545 20.6175 12.6722 20.3624 13.2616C20.1074 13.8511 19.9798 14.4803 19.9798 15.1493C19.9798 15.3405 19.9878 15.5237 20.0037 15.6989C20.0197 15.8742 20.0436 16.0573 20.0755 16.2485C18.0669 16.1529 16.2018 15.6511 14.4802 14.7431C12.7586 13.8351 11.292 12.6483 10.0805 11.1828C9.63415 11.9156 9.41098 12.728 9.41098 13.6201C9.41098 14.4484 9.61024 15.2131 10.0088 15.914C10.4073 16.6149 10.9254 17.1884 11.563 17.6344C11.1804 17.6344 10.8058 17.5787 10.4392 17.4671C10.0725 17.3556 9.71385 17.2202 9.36315 17.0609V17.1087C9.36315 18.2875 9.73777 19.315 10.487 20.1912C11.2362 21.0673 12.1688 21.6328 13.2846 21.8877C12.8383 21.9833 12.4079 22.0311 11.9934 22.0311H11.5391L11.0848 21.9355C11.4036 22.9231 11.9695 23.7276 12.7825 24.3489C13.5955 24.9701 14.544 25.2967 15.628 25.3286C14.799 25.9658 13.8665 26.4755 12.8303 26.8578C11.7942 27.2401 10.7181 27.4313 9.60227 27.4313C9.37909 27.4313 9.17186 27.4233 8.98057 27.4074C8.78928 27.3915 8.59799 27.3676 8.40669 27.3357C9.49068 28.0366 10.6623 28.5783 11.9217 28.9606C13.181 29.3429 14.4961 29.534 15.8671 29.534C18.0988 29.534 20.0755 29.1119 21.7971 28.2676C23.5187 27.4233 24.9614 26.3401 26.1251 25.0179C27.2888 23.6957 28.1735 22.2143 28.7793 20.5735C29.385 18.9327 29.6879 17.2999 29.6879 15.675V15.0538Z" fill="white"/>
</svg>
